<svg xmlns="http://www.w3.org/2000/svg" version="1.1" xmlns:xlink="http://www.w3.org/1999/xlink" width="1500" height="1500" viewBox="0 0 1500 1500"><rect width="1500" height="1500" x="0" y="0" id="background" stroke="transparent" fill="#000000"></rect><svg xml:space="preserve" width="1000" height="1000" data-version="2" data-id="lg_55PeYS1zFRvbAHDFDh" viewBox="0 0 469 267" x="250" y="250"><rect width="100%" height="100%" fill="transparent"></rect><path fill="#f4f4f4" d="m63.73 263.623.89-23.24H39.9l-7.25 23.24H4.38l38.04-106.56h48.84l.59 106.56Zm-6.07-80.66-11.69 37.59h19.39l1.62-37.59Z"></path><rect width="87.47" height="106.56" x="-43.73" y="-53.28" fill="none" rx="0" ry="0" transform="translate(48.62 210.84)"></rect><path fill="#f4f4f4" d="M173.4 263.623h-67.49l18.79-106.56h26.64l-14.65 83.47h40.85Z"></path><rect width="71.63" height="106.56" x="-35.81" y="-53.28" fill="none" rx="0" ry="0" transform="translate(142.22 210.84)"></rect><path fill="#f4f4f4" d="M235.26 231.213h-17.61l-5.77 32.41h-26.64l18.79-106.56h45.14q16.73 0 23.83 7.7 5.18 5.92 5.18 15.09 0 3.11-.59 6.51l-2.96 16.73q-2.22 12.28-13.03 20.2-10.8 7.92-26.34 7.92m4.59-51.06h-13.32l-4.89 27.97h13.18q12.13 0 14.06-10.8l1.03-6.07q.3-1.33.3-3.55 0-2.22-2.22-4.89-2.22-2.66-8.14-2.66"></path><rect width="92.94" height="106.56" x="-46.47" y="-53.28" fill="none" rx="0" ry="0" transform="translate(232.21 210.84)"></rect><path fill="#f4f4f4" d="m380.6 157.063-18.65 106.56h-26.79l6.81-38.48h-28.86l-6.66 38.48h-26.79l18.8-106.56h26.64l-8 44.99h28.86l8-44.99Z"></path><rect width="100.94" height="106.56" x="-50.47" y="-53.28" fill="none" rx="0" ry="0" transform="translate(330.63 210.84)"></rect><path fill="#f4f4f4" d="m435.5 263.623.89-23.24h-24.71l-7.26 23.24h-28.26l38.03-106.56h48.84l.59 106.56Zm-6.06-80.66-11.7 37.59h19.39l1.63-37.59Z"></path><rect width="87.46" height="106.56" x="-43.73" y="-53.28" fill="none" rx="0" ry="0" transform="translate(420.39 210.84)"></rect><path fill="#f4f4f4" d="m223.91 50.853 8.155 8.517-14.401-2.53-1.23-6.073z"></path><path fill="#f4f4f4" d="m277.057 32.946-.956-17.047-4.116-13.524-22.578 17.778-8.622.79-8.538-.79-22.578-17.778-4.118 13.524-.955 17.047-16.01 48.32 52.198 50.8 52.283-50.8zm-84.289 47.496 13.596-46.287 10.674-11.728 23.746 3.973 23.83-3.973 10.676 11.728 13.594 46.287-48.1 41.5z"></path><path fill="#f4f4f4" d="m257.744 50.853-8.155 8.517 14.401-2.53 1.23-6.073zm28.084 24.659-10.829-15.743 5.193 10.854-5.686-2.47.88 6.016-6.595-2.165-9.777 8.963-3.46 11.689-3.089 4.73-3.243 1.369h-4.309l5.53-7.11.573-5.168-2.271-8.049-2.254-9.637 3.111-9.407-5.266 9.429 2.011 9.981 3.48 8.06-9.046 2.852-8.96-2.853 3.478-8.059 2.012-9.981-5.264-9.429 3.11 9.407-2.254 9.637-2.27 8.05.576 5.167 5.528 7.11h-4.308l-3.244-1.368-3.087-4.731-3.46-11.689-9.776-8.963-6.596 2.165.879-6.015-5.686 2.47 5.193-10.855-10.826 15.743 7.668-3.321-.865 6.095 9.336-2.793 8.761 6.963 3.823 11.163 3.473 5.137 3.663 1.5.578 3.97 8.52 4.145 8.605-4.145.58-3.97 3.661-1.5 3.472-5.137 3.825-11.163 8.76-6.963 9.336 2.793-.863-6.095zm-38.149 27.977-6.852 2.48-6.854-2.48-.07-3.301 6.88-1.43 6.968 1.43z"></path></svg></svg>